<?xml version="1.0" encoding="UTF-8" standalone="no"?>
<!-- Created with Inkscape (http://www.inkscape.org/) -->

<svg
   version="1.1"
   id="svg1"
   width="248.63045"
   height="47.871544"
   viewBox="0 0 248.63045 47.871545"
   sodipodi:docname="ins.png"
   inkscape:export-filename="ins.png"
   inkscape:export-xdpi="500"
   inkscape:export-ydpi="500"
   xmlns:inkscape="http://www.inkscape.org/namespaces/inkscape"
   xmlns:sodipodi="http://sodipodi.sourceforge.net/DTD/sodipodi-0.dtd"
   xmlns="http://www.w3.org/2000/svg"
   xmlns:svg="http://www.w3.org/2000/svg">
  <defs
     id="defs1" />
  <sodipodi:namedview
     id="namedview1"
     pagecolor="#ffffff"
     bordercolor="#999999"
     borderopacity="1"
     inkscape:showpageshadow="0"
     inkscape:pageopacity="0"
     inkscape:pagecheckerboard="0"
     inkscape:deskcolor="#d1d1d1" />
  <g
     inkscape:groupmode="layer"
     inkscape:label="Image"
     id="g1"
     transform="translate(-85.261699,-53.967139)">
    <path
       style="fill:#060b5b;fill-opacity:1"
       d="m 223.17582,100.60188 c -5.28991,-1.843483 -9.10263,-2.554733 -13.69492,-2.554733 -4.50405,0 -7.74674,0.55459 -12.19887,2.086353 -3.34152,1.14965 -4.8099,1.30623 -8.56696,0.91354 l -1.91464,-0.20012 -0.71151,-2.439883 c -2.83926,-9.73638 -7.68847,-18.32703 -13.76176,-24.37973 -6.13057,-6.10978 -12.5009,-9.34139 -20.80898,-10.55619 -4.26267,-0.62328 -12.22958,-0.23326 -16.34039,0.79995 -7.59915,1.90996 -14.10388,5.58887 -19.53434,11.0481 -5.69371,5.72389 -9.62047,13.06056 -11.66469,21.79405 l -0.86746,3.706073 -2.66867,0.35707 c -3.739353,0.50032 -5.286143,-0.0408 -6.427803,-2.248453 -0.40247,-0.77829 -0.63696,-0.88076 -2.015527,-0.88076 -1.36058,0 -1.81466,-0.19137 -3.55084,-1.49647 -2.30413,-1.73205 -3.19169,-3.00864 -3.18674,-4.58353 0.008,-2.63755 1.79775,-3.98191 4.95409,-3.72186 4.326677,0.35648 6.509017,-0.97572 9.105007,-5.55814 4.097783,-7.23336 6.736163,-10.8903 10.760543,-14.91468 9.09025,-9.09025 20.31006,-13.55785 34.06286,-13.56343 11.65203,-0.005 20.67518,2.5344 29.25372,8.23206 3.95861,2.6292 9.10002,7.7016 12.08832,11.92606 2.48994,3.51992 5.81081,9.78887 7.47611,14.11297 0.63694,1.65386 1.18481,3.0363 1.21749,3.07209 0.0327,0.0358 1.02395,-0.28504 2.20282,-0.71295 7.71412,-2.80008 17.71439,-2.98883 25.17814,-0.47523 1.62258,0.54644 1.77249,0.55033 2.13704,0.0554 0.21563,-0.29275 2.28217,-3.50899 4.5923,-7.14719 6.4933,-10.2262 9.37238,-13.83053 14.37508,-17.99621 15.04642,-12.52896 36.3309,-14.85936 54.15491,-5.92932 5.12368,2.56702 8.65762,5.13911 12.92731,9.4088 4.25718,4.25718 6.84197,7.80396 9.38176,12.87341 1.74163,3.47633 3.10725,5.28426 4.55821,6.03458 0.60339,0.31202 1.92213,0.46404 4.0325,0.46485 3.53428,0.001 4.7917,0.49028 5.68036,2.20876 0.71538,1.38341 0.63838,4.11182 -0.15267,5.4093 -0.81986,1.34473 -2.24382,1.93582 -5.28217,2.19265 -2.38684,0.20177 -2.4207,0.21736 -3.29189,1.51598 -1.21447,1.810323 -2.33861,2.136253 -5.86071,1.699233 l -2.76296,-0.34283 -1.33069,-5.142143 c -3.15348,-12.18592 -9.44267,-20.77502 -19.70338,-26.90876 -3.41284,-2.04015 -6.81274,-3.44117 -11.01277,-4.53809 -4.08957,-1.06807 -11.2509,-1.3498 -15.71104,-0.61807 -13.80613,2.26502 -24.79589,10.09075 -30.84258,21.96277 -1.60953,3.16016 -2.42464,5.35061 -3.99606,10.73873 -0.81004,2.77747 -1.78626,4.288423 -3.24393,5.020783 -1.65102,0.8295 -2.96088,0.69453 -7.03362,-0.72478 z"
       id="path1"
       sodipodi:nodetypes="sssscsssssscsssscssscssssssssssssscssssscsssssssss" />
  </g>
</svg>
